<?xml version="1.0" encoding="UTF-8" standalone="no"?>
<!DOCTYPE svg PUBLIC "-//W3C//DTD SVG 1.1//EN" "http://www.w3.org/Graphics/SVG/1.1/DTD/svg11.dtd">
<svg width="100%" height="100%" viewBox="0 0 1260 1260" version="1.1" xmlns="http://www.w3.org/2000/svg" xmlns:xlink="http://www.w3.org/1999/xlink" xml:space="preserve" xmlns:serif="http://www.serif.com/" style="fill-rule:evenodd;clip-rule:evenodd;stroke-linejoin:round;stroke-miterlimit:1.41421;">
    <g>
        <g transform="matrix(1,0,0,1,-41.9057,-1.66786)">
            <path d="M583.643,195.619C583.643,195.619 464.035,131.027 316.985,181.443C169.935,231.858 123.577,407.812 122.7,491.29C122.7,491.29 108.276,645.632 288.227,843.216C288.227,843.216 402.084,962.398 629.277,1088.33C629.277,1088.33 786.525,1028.54 958.712,855.102C1130.72,681.842 1135.78,526.223 1135.78,526.223C1135.78,526.223 1145.92,400.243 1074.95,281.233C1005.45,164.679 846.71,163.091 846.71,163.091C846.71,163.091 690.689,147.034 590.663,255.225C490.638,363.416 498.529,489.159 498.529,489.159L499.574,798.481L630.008,880.75L632.583,639.24L759.786,640.075L756.661,507.751L633.943,505.956C633.943,505.956 611.451,316.502 797.61,296.945C797.61,296.945 926.978,269.007 986.139,394.445C986.139,394.445 1050.23,514.187 925.463,692.27C925.463,692.27 817.312,833.795 628.327,934.875C628.327,934.875 395.598,800.187 319.05,671.878C319.05,671.878 213.305,538.449 275.631,389.694C275.631,389.694 309.879,265.726 498.954,302.435C498.954,302.435 521.667,261.631 535.782,243.828C549.85,226.084 583.643,195.619 583.643,195.619Z" style="fill:rgb(245,91,81);"/>
        </g>
        <g transform="matrix(1.08023,0,0,1.16798,-433.302,-89.5477)">
            <rect x="597.693" y="509.591" width="115.268" height="113.557" style="fill:rgb(245,91,81);"/>
        </g>
    </g>
</svg>
