<?xml version="1.0" standalone="no"?>
<!DOCTYPE svg PUBLIC "-//W3C//DTD SVG 20010904//EN"
 "http://www.w3.org/TR/2001/REC-SVG-20010904/DTD/svg10.dtd">
<svg version="1.0" xmlns="http://www.w3.org/2000/svg"
 width="1015.000000pt" height="1015.000000pt" viewBox="0 0 1015.000000 1015.000000"
 preserveAspectRatio="xMidYMid meet">
<metadata>
Created by potrace 1.11, written by Peter Selinger 2001-2013
</metadata>
<g transform="translate(0.000000,1015.000000) scale(0.100000,-0.100000)"
fill="#000000" stroke="none">
<path d="M2918 9705 c-1 -1 -52 -6 -112 -9 -60 -4 -112 -9 -115 -10 -3 -2 -31
-7 -61 -10 -53 -6 -82 -10 -145 -21 -16 -3 -46 -8 -65 -11 -63 -10 -272 -64
-388 -100 -139 -43 -257 -91 -371 -148 -128 -65 -153 -80 -238 -137 -23 -16
-44 -29 -47 -29 -3 0 -14 -6 -23 -14 -10 -8 -65 -51 -122 -97 -440 -346 -791
-883 -1019 -1554 -48 -143 -118 -408 -136 -518 -3 -15 -7 -35 -10 -45 -3 -9
-7 -35 -11 -57 -3 -22 -9 -65 -14 -95 -40 -237 -49 -684 -17 -845 2 -11 7 -40
10 -65 12 -86 50 -277 68 -345 6 -22 12 -44 13 -50 20 -95 112 -373 183 -550
130 -328 285 -633 476 -938 34 -53 66 -105 71 -115 39 -69 361 -517 402 -560
7 -7 34 -41 60 -75 26 -34 50 -64 53 -67 3 -3 25 -30 50 -60 123 -150 274
-314 387 -420 180 -169 349 -317 582 -509 25 -20 72 -59 105 -86 90 -75 228
-182 341 -266 55 -41 102 -77 105 -80 20 -23 696 -499 710 -499 4 0 10 -4 12
-8 2 -4 21 -19 43 -32 22 -13 45 -28 50 -33 66 -54 815 -517 1025 -634 30 -17
112 -63 181 -102 l126 -71 49 21 c27 12 69 30 94 41 86 38 496 246 595 303 55
32 120 69 144 83 370 210 934 597 1314 903 62 49 119 95 127 102 17 13 120 99
160 133 14 12 63 54 110 94 47 40 105 91 130 114 25 22 90 82 144 131 107 96
133 121 302 287 176 172 340 343 494 518 64 73 308 379 371 465 197 272 388
577 522 835 65 127 96 191 196 412 11 26 21 50 21 53 0 4 6 21 14 38 31 74 40
98 78 207 37 105 102 317 113 365 9 40 34 153 40 181 11 50 26 139 42 256 14
102 7 564 -11 713 -14 112 -19 148 -27 195 -5 30 -11 71 -13 90 -13 100 -79
396 -117 525 -100 338 -219 623 -393 943 -147 268 -327 472 -616 695 -16 12
-54 37 -150 99 -99 64 -302 165 -445 221 -125 50 -337 119 -397 131 -13 2 -54
12 -93 21 -110 26 -235 48 -330 60 -33 3 -71 8 -85 11 -110 18 -555 25 -720
12 -100 -9 -232 -25 -310 -38 -81 -14 -124 -22 -135 -24 -5 -2 -28 -6 -50 -10
-121 -23 -466 -128 -558 -170 -18 -8 -61 -27 -97 -42 -79 -32 -289 -140 -311
-160 -8 -8 -19 -14 -23 -14 -13 0 -207 -136 -295 -206 -130 -105 -303 -280
-417 -423 -11 -13 -24 -28 -29 -35 -6 -6 -40 -51 -75 -101 -35 -49 -68 -94
-73 -100 -11 -13 -75 -113 -93 -145 -8 -14 -23 -38 -34 -55 -11 -16 -24 -39
-29 -50 -5 -11 -27 -51 -48 -90 -44 -80 -129 -266 -168 -370 -30 -79 -103
-299 -109 -330 -2 -11 -13 -54 -25 -95 -11 -41 -23 -88 -26 -105 -19 -108 -44
-268 -50 -315 -3 -30 -9 -73 -12 -95 -5 -35 -5 -1058 0 -2887 l2 -497 314
-198 c172 -109 327 -206 345 -216 17 -10 168 -105 336 -212 168 -106 306 -192
308 -190 4 3 6 143 17 1240 8 699 13 1133 14 1155 1 14 30 16 229 14 253 -2
997 -6 1025 -5 16 1 17 16 12 249 -15 676 -26 1066 -30 1070 -3 3 -262 8 -893
16 -178 3 -327 7 -330 10 -8 9 -8 315 1 401 33 340 122 637 266 883 81 138
238 324 345 407 22 17 51 39 65 51 174 137 530 284 776 319 29 4 101 15 175
26 187 29 486 31 622 3 13 -2 37 -7 53 -9 68 -12 204 -49 265 -71 114 -43 305
-142 396 -206 91 -64 267 -231 320 -303 16 -22 32 -42 35 -45 15 -12 122 -184
169 -272 87 -165 142 -340 176 -568 20 -127 26 -499 10 -625 -4 -38 -10 -83
-11 -100 -2 -16 -6 -43 -9 -60 -3 -16 -9 -50 -12 -75 -10 -70 -79 -333 -119
-455 -84 -251 -202 -512 -347 -765 -65 -112 -274 -432 -304 -465 -11 -11 -44
-49 -74 -85 -53 -63 -86 -99 -200 -224 -138 -151 -390 -404 -514 -517 -33 -30
-71 -65 -85 -79 -14 -14 -80 -72 -146 -130 -66 -57 -122 -107 -125 -110 -30
-35 -490 -395 -670 -525 -221 -160 -627 -424 -810 -528 -149 -85 -244 -137
-276 -154 -31 -15 -33 -15 -95 23 -35 22 -72 44 -81 49 -398 236 -1115 732
-1478 1023 -30 25 -73 59 -95 76 -56 44 -219 179 -225 185 -3 4 -34 31 -70 61
-36 30 -67 57 -70 60 -3 3 -50 46 -105 95 -118 107 -391 380 -490 490 -139
156 -259 314 -419 555 -146 218 -196 299 -196 314 0 2 168 4 373 4 204 1 384
1 398 1 l25 1 0 663 -1 662 -585 1 c-685 2 -636 1 -638 17 -4 44 -2 314 2 372
20 261 74 485 193 800 114 304 351 566 654 724 257 134 563 203 903 204 94 0
346 -12 356 -18 3 -1 34 -6 70 -9 36 -4 104 -14 153 -22 48 -8 91 -13 96 -9 6
3 33 47 62 98 123 217 265 430 359 538 62 71 238 249 350 352 85 79 87 73 -49
130 -213 91 -448 161 -701 212 -8 1 -35 6 -60 10 -25 4 -54 9 -64 11 -11 2
-42 6 -70 9 -28 3 -69 8 -91 11 -22 3 -62 8 -90 10 -61 6 -492 14 -497 9z"/>
</g>
</svg>
